<svg width="34" height="34" fill="none" xmlns="http://www.w3.org/2000/svg"><g clip-path="url(#clip0)"><path d="M33.064 9.436l-3.062 3.062a.798.798 0 01-1.128 0l-7.372-7.371a.798.798 0 010-1.13l3.062-3.06a3.194 3.194 0 014.509 0l3.99 3.99a3.182 3.182 0 010 4.51zM18.873 6.627L1.434 24.066.027 32.134a1.596 1.596 0 001.846 1.846l8.068-1.414L27.38 15.127a.798.798 0 000-1.128l-7.37-7.372a.806.806 0 00-1.136 0zM8.24 22.572a.926.926 0 010-1.315L18.468 11.03a.926.926 0 011.314 0 .926.926 0 010 1.315L9.556 22.572a.926.926 0 01-1.315 0zm-2.397 5.584H9.03v2.41l-4.283.751-2.065-2.065.75-4.283h2.41v3.187z" fill="#fff"/></g><defs><clipPath id="clip0"><path fill="#fff" d="M0 0h34v34H0z"/></clipPath></defs></svg>