<svg width="34" height="34" fill="none" xmlns="http://www.w3.org/2000/svg"><path d="M32.938 8.5v1.062a.531.531 0 01-.532.532h-1.593v.797c0 .44-.357.796-.797.796H3.984a.797.797 0 01-.796-.796v-.797H1.593a.531.531 0 01-.532-.532V8.5a.531.531 0 01.329-.49l15.406-5.845a.53.53 0 01.406 0L32.61 8.01a.531.531 0 01.328.491zm-1.594 20.188H2.656c-.88 0-1.594.713-1.594 1.593v1.063a.531.531 0 00.532.531h30.812a.531.531 0 00.532-.531V30.28c0-.88-.714-1.593-1.594-1.593zM6.375 12.75V25.5h-2.39a.797.797 0 00-.797.797v1.328h27.625v-1.328a.797.797 0 00-.797-.797h-2.391V12.75h-4.25V25.5h-4.25V12.75h-4.25V25.5h-4.25V12.75h-4.25z" fill="#fff"/></svg>